<?xml version="1.0" encoding="UTF-8" standalone="no"?>
<svg
   xmlns:dc="http://purl.org/dc/elements/1.1/"
   xmlns:cc="http://creativecommons.org/ns#"
   xmlns:rdf="http://www.w3.org/1999/02/22-rdf-syntax-ns#"
   xmlns:svg="http://www.w3.org/2000/svg"
   xmlns="http://www.w3.org/2000/svg"
   viewBox="0 0 563.98669 639.66266"
   height="639.66266"
   width="563.98669"
   xml:space="preserve"
   id="svg2"
   version="1.1"><metadata
     id="metadata8"><rdf:RDF><cc:Work
         rdf:about=""><dc:format>image/svg+xml</dc:format><dc:type
           rdf:resource="http://purl.org/dc/dcmitype/StillImage" /></cc:Work></rdf:RDF></metadata><defs
     id="defs6"><clipPath
       id="clipPath18"
       clipPathUnits="userSpaceOnUse"><path
         id="path16"
         d="M 99.171,151.176 H 324.449 V 459.742 H 99.171 Z" /></clipPath><clipPath
       id="clipPath150"
       clipPathUnits="userSpaceOnUse"><path
         id="path148"
         d="M 0,479.747 H 422.99 V 0 H 0 Z" /></clipPath></defs><g
     transform="matrix(1.3333333,0,0,-1.3333333,0,639.66267)"
     id="g10"><g
       id="g12"><g
         clip-path="url(#clipPath18)"
         id="g14"><g
           transform="translate(211.9565,253.1417)"
           id="g20"><path
             id="path22"
             style="fill:#5d288b;fill-opacity:1;fill-rule:nonzero;stroke:none"
             d="m 0,0 3.771,3.77 c -1.265,4.15 -0.228,8.845 3.095,12.074 2.23,2.165 5.1,3.293 7.98,3.366 1.877,0.232 3.797,0.008 5.583,-0.643 l -8.596,-8.353 6.448,-6.608 8.583,8.351 C 27.466,10.136 27.635,8.217 27.342,6.345 27.187,3.46 25.978,0.637 23.747,-1.524 20.412,-4.763 15.703,-5.667 11.592,-4.281 L 7.641,-8.236 -4.368,-20.241 -8.707,-24.576 c 0.577,-3.043 -0.31,-6.322 -2.669,-8.686 -3.796,-3.792 -9.942,-3.792 -13.734,0 -3.792,3.8 -3.792,9.943 0,13.736 2.259,2.267 5.35,3.145 8.29,2.711 l 4.812,4.812 z" /></g><g
           transform="translate(190.3451,226.7921)"
           id="g24"><path
             id="path26"
             style="fill:#ffffff;fill-opacity:1;fill-rule:nonzero;stroke:none"
             d="m 0,0 c 0,-1.858 1.512,-3.37 3.362,-3.36 1.855,0 3.366,1.51 3.37,3.37 0,1.855 -1.51,3.365 -3.362,3.365 C 1.512,3.375 0.004,1.865 0,0" /></g><g
           transform="translate(199.9613,241.1359)"
           id="g28"><path
             id="path30"
             style="fill:#5d288b;fill-opacity:1;fill-rule:nonzero;stroke:none"
             d="m 0,0 -13.258,14.297 c -0.244,0.22 -0.437,0.49 -0.528,0.826 l -3.513,13.882 c -0.168,0.599 0.022,1.21 0.448,1.631 l 0.021,0.013 c 0.452,0.4 1.072,0.534 1.653,0.344 l 13.579,-4.557 c 0.328,-0.118 0.586,-0.341 0.78,-0.604 l 12.827,-13.829 7.64,-8.237 13.592,-14.66 c 1.65,-1.786 1.607,-4.506 -0.106,-6.107 l -6.224,-5.756 c -1.709,-1.614 -4.451,-1.454 -6.117,0.327 L 7.641,-8.238 Z" /></g><g
           transform="translate(200.0815,261.5616)"
           id="g32"><path
             id="path34"
             style="fill:#ffffff;fill-opacity:1;fill-rule:nonzero;stroke:none"
             d="m 0,0 c -0.21,0.229 -0.563,0.233 -0.805,0.021 l -0.456,-0.43 c -0.227,-0.206 -0.241,-0.568 -0.025,-0.799 l 24.702,-26.638 c 0.22,-0.232 0.568,-0.25 0.801,-0.034 l 0.451,0.421 c 0.241,0.215 0.25,0.581 0.039,0.813 z" /></g><g
           transform="translate(196.6518,265.8282)"
           id="g36"><path
             id="path38"
             style="fill:#ffffff;fill-opacity:1;fill-rule:nonzero;stroke:none"
             d="M 0,0 -6.797,2.272 -9.775,-0.486 -8.011,-7.43 Z" /></g><g
           transform="translate(221.978,222.4386)"
           id="g40"><path
             id="path42"
             style="fill:#ffffff;fill-opacity:1;fill-rule:nonzero;stroke:none"
             d="M 0,0 C 1.071,-1.146 2.823,-1.239 3.938,-0.212 L 7.945,3.495 C 9.038,4.531 9.077,6.279 8.01,7.425 L 5.639,9.986 -2.368,2.548 Z" /></g><g
           transform="translate(256.2299,260.9376)"
           id="g44"><path
             id="path46"
             style="fill:#5d288b;fill-opacity:1;fill-rule:nonzero;stroke:none"
             d="m 0,0 c -1.992,0 -3.611,1.614 -3.611,3.611 0,1.997 1.619,3.612 3.611,3.612 1.993,0 3.612,-1.615 3.612,-3.612 C 3.612,1.614 1.993,0 0,0" /></g><g
           transform="translate(246.4897,278.757)"
           id="g48"><path
             id="path50"
             style="fill:#5d288b;fill-opacity:1;fill-rule:nonzero;stroke:none"
             d="m 0,0 c -1.997,0 -3.611,1.614 -3.611,3.611 0,1.997 1.614,3.612 3.611,3.612 1.988,0 3.611,-1.615 3.611,-3.612 C 3.611,1.614 1.988,0 0,0" /></g><g
           transform="translate(177.436,280.1984)"
           id="g52"><path
             id="path54"
             style="fill:#5d288b;fill-opacity:1;fill-rule:nonzero;stroke:none"
             d="m 0,0 c -1.993,0 -3.611,1.614 -3.611,3.612 0,1.996 1.618,3.612 3.611,3.612 1.993,0 3.611,-1.616 3.611,-3.612 C 3.611,1.614 1.993,0 0,0" /></g><g
           transform="translate(165.728,269.9464)"
           id="g56"><path
             id="path58"
             style="fill:#5d288b;fill-opacity:1;fill-rule:nonzero;stroke:none"
             d="m 0,0 c 1.998,0 3.611,-1.614 3.611,-3.611 0,-1.997 -1.613,-3.613 -3.611,-3.613 -1.988,0 -3.61,1.616 -3.61,3.613 C -3.61,-1.614 -1.988,0 0,0" /></g><g
           transform="translate(168.7289,238.9874)"
           id="g60"><path
             id="path62"
             style="fill:#5d288b;fill-opacity:1;fill-rule:nonzero;stroke:none"
             d="m 0,0 c -0.577,-0.099 -1.163,-0.116 -1.744,-0.03 l -1.265,-2.045 -1.877,0.727 0.503,2.36 c -0.481,0.343 -0.903,0.749 -1.252,1.21 l -2.35,-0.551 -0.8,1.846 2.027,1.313 c -0.095,0.572 -0.107,1.149 -0.026,1.747 l -2.074,1.227 0.74,1.877 2.38,-0.492 c 0.34,0.488 0.753,0.907 1.21,1.255 l -0.599,2.351 1.856,0.8 1.337,-2.027 c 0.569,0.09 1.146,0.095 1.731,0.026 L 1.046,13.686 2.922,12.95 2.427,10.557 C 2.905,10.217 3.323,9.814 3.676,9.354 L 6.03,9.956 6.839,8.101 4.803,6.767 C 4.902,6.189 4.915,5.608 4.846,5.027 L 6.908,3.763 6.172,1.876 3.805,2.385 C 3.46,1.898 3.056,1.48 2.6,1.123 L 3.159,-1.218 1.308,-2.022 Z" /></g><g
           transform="translate(173.8246,218.297)"
           id="g64"><path
             id="path66"
             style="fill:#5d288b;fill-opacity:1;fill-rule:nonzero;stroke:none"
             d="m 0,0 c -1.988,0 -3.611,1.614 -3.611,3.611 0,1.997 1.623,3.612 3.611,3.612 1.997,0 3.611,-1.615 3.611,-3.612 C 3.611,1.614 1.997,0 0,0" /></g><g
           transform="translate(186.6254,201.8712)"
           id="g68"><path
             id="path70"
             style="fill:#5d288b;fill-opacity:1;fill-rule:nonzero;stroke:none"
             d="m 0,0 c -1.988,0 -3.61,1.614 -3.61,3.612 0,1.997 1.622,3.612 3.61,3.612 1.998,0 3.611,-1.615 3.611,-3.612 C 3.611,1.614 1.998,0 0,0" /></g><g
           transform="translate(151.683,375.588)"
           id="g72"><path
             id="path74"
             style="fill:#5d288b;fill-opacity:1;fill-rule:nonzero;stroke:none"
             d="m 0,0 c -0.431,2.717 0.241,5.342 1.636,7.49 l -8.105,8.105 C -9.572,11.799 -11.44,6.956 -11.44,1.679 c 0,-5.278 1.868,-10.124 4.975,-13.92 l 8.084,8.083 C 0.823,-2.927 0.241,-1.536 0,0" /></g><g
           transform="translate(176.1879,360.2179)"
           id="g76"><path
             id="path78"
             style="fill:#5d288b;fill-opacity:1;fill-rule:nonzero;stroke:none"
             d="M 0,0 -8.097,8.083 C -9.34,7.274 -10.74,6.71 -12.251,6.47 c -0.567,-0.091 -1.136,-0.139 -1.695,-0.139 -2.148,0 -4.141,0.65 -5.824,1.743 L -27.845,0 c 3.797,-3.108 8.643,-4.976 13.92,-4.976 5.277,0 10.124,1.868 13.925,4.976" /></g><g
           transform="translate(259.6567,399.2872)"
           id="g80"><path
             id="path82"
             style="fill:#5d288b;fill-opacity:1;fill-rule:nonzero;stroke:none"
             d="M 0,0 C -6.701,0 -12.698,-3.013 -16.744,-7.742 H 16.734 C 12.692,-3.013 6.692,0 0,0" /></g><g
           transform="translate(160.5883,387.8468)"
           id="g84"><path
             id="path86"
             style="fill:#5d288b;fill-opacity:1;fill-rule:nonzero;stroke:none"
             d="M 0,0 C 2.776,0.443 5.39,-0.229 7.512,-1.614 L 15.6,6.466 C 11.799,9.572 6.951,11.44 1.675,11.44 c -5.278,0 -10.123,-1.868 -13.92,-4.974 l 8.083,-8.089 C -2.935,-0.822 -1.54,-0.241 0,0" /></g><g
           transform="translate(172.8383,378.9376)"
           id="g88"><path
             id="path90"
             style="fill:#5d288b;fill-opacity:1;fill-rule:nonzero;stroke:none"
             d="m 0,0 c 0.422,-2.635 -0.181,-5.27 -1.63,-7.494 l 8.105,-8.097 c 3.107,3.796 4.975,8.643 4.975,13.92 0,5.277 -1.868,10.119 -4.975,13.916 L -1.609,4.17 C -0.813,2.939 -0.24,1.536 0,0" /></g><g
           transform="translate(162.268,383.5597)"
           id="g92"><path
             id="path94"
             style="fill:#5d288b;fill-opacity:1;fill-rule:nonzero;stroke:none"
             d="m 0,0 c -0.327,0 -0.654,-0.025 -0.986,-0.081 -3.426,-0.543 -5.772,-3.775 -5.23,-7.202 0.526,-3.353 3.753,-5.776 7.193,-5.225 1.661,0.267 3.125,1.162 4.111,2.527 0.985,1.355 1.381,3.012 1.114,4.665 C 5.725,-2.281 3.061,0 0,0" /></g><g
           transform="translate(239.9897,387.1368)"
           id="g96"><path
             id="path98"
             style="fill:#5d288b;fill-opacity:1;fill-rule:nonzero;stroke:none"
             d="M 0,0 C -1.184,-2.354 -1.979,-4.934 -2.251,-7.67 H 41.575 C 41.304,-4.934 40.508,-2.354 39.324,0 Z" /></g><g
           transform="translate(259.6567,355.2423)"
           id="g100"><path
             id="path102"
             style="fill:#5d288b;fill-opacity:1;fill-rule:nonzero;stroke:none"
             d="M 0,0 C 6.692,0 12.689,3.013 16.73,7.743 H -16.739 C -12.698,3.013 -6.701,0 0,0" /></g><g
           transform="translate(282.7651,207.9738)"
           id="g104"><path
             id="path106"
             style="fill:#5d288a;fill-opacity:1;fill-rule:nonzero;stroke:none"
             d="M 0,0 C 0.782,0.88 1.553,1.768 2.316,2.656 1.555,1.867 0.74,1.137 -0.121,0.472 Z" /></g><g
           transform="translate(285.2446,210.8165)"
           id="g108"><path
             id="path110"
             style="fill:#5d288a;fill-opacity:1;fill-rule:nonzero;stroke:none"
             d="M 0,0 C 0.687,0.8 1.359,1.605 2.031,2.412 L 2.01,2.416 C 1.396,1.556 0.717,0.756 0,0" /></g><g
           transform="translate(239.9946,367.3927)"
           id="g112"><path
             id="path114"
             style="fill:#5d288b;fill-opacity:1;fill-rule:nonzero;stroke:none"
             d="m 0,0 h 39.315 c 1.188,2.351 1.98,4.929 2.255,7.666 H -2.255 C -1.98,4.929 -1.188,2.351 0,0" /></g><g
           transform="translate(264.9213,248.8966)"
           id="g116"><path
             id="path118"
             style="fill:#5d288b;fill-opacity:1;fill-rule:nonzero;stroke:none"
             d="M 0,0 -2.711,4.172 C -5.759,3.436 -8.698,2.162 -11.396,0.365 l 1.231,-4.817 c -1.744,-1.345 -3.298,-2.952 -4.611,-4.786 l -4.869,1.024 c -1.676,-2.763 -2.827,-5.752 -3.442,-8.828 l 4.274,-2.541 c -0.29,-2.236 -0.237,-4.475 0.143,-6.645 l -4.177,-2.712 c 0.737,-3.048 2.006,-5.992 3.806,-8.681 l 4.82,1.225 c 0.768,-0.992 2.082,-2.382 3.475,-3.571 2.079,3.1 4.049,6.297 5.852,9.572 -1.92,2.097 -3.119,4.869 -3.119,7.945 0,6.357 5.013,11.482 11.308,11.741 C 4.28,-7.117 4.985,-3.485 5.34,0.168 3.76,0.192 1.164,0.198 0,0" /></g><g
           transform="translate(191.4955,180.3302)"
           id="g120"><path
             id="path122"
             style="fill:#5d288a;fill-opacity:1;fill-rule:nonzero;stroke:none"
             d="M 0,0 C 0.053,0.07 0.118,0.127 0.172,0.196 L 0.152,0.215 C 0.067,0.095 0,0 0,0" /></g><g
           transform="translate(196.6371,185.3907)"
           id="g124"><path
             id="path126"
             style="fill:#5d288a;fill-opacity:1;fill-rule:nonzero;stroke:none"
             d="M 0,0 C -0.132,-0.098 -1.738,-1.305 -0.099,-0.085 -0.063,-0.06 -0.034,-0.026 0,-0.002 Z" /></g><g
           transform="translate(191.6264,180.5646)"
           id="g128"><path
             id="path130"
             style="fill:#5d288a;fill-opacity:1;fill-rule:nonzero;stroke:none"
             d="M 0,0 0.021,-0.02 C 0.3,0.374 0.772,1.051 0,0" /></g><g
           transform="translate(225.8481,184.9747)"
           id="g132"><path
             id="path134"
             style="fill:#5d288b;fill-opacity:1;fill-rule:nonzero;stroke:none"
             d="m 0,0 c 0,0 1.694,-1.198 -0.112,0.126 l 2.354,9.931 -7.796,3.297 -5.427,-8.6 c -2.38,0.379 -4.806,0.414 -7.245,0.059 l -5.383,8.701 -7.822,-3.16 2.22,-9.937 c 0.005,0.003 0.024,0.018 0.024,0.018 -0.008,-0.006 -0.015,-0.014 -0.024,-0.02 l 0.002,-0.01 c -0.044,-0.032 -0.061,-0.044 -0.101,-0.073 -1.828,-1.345 -3.463,-2.941 -4.871,-4.78 l 7.303,-6.602 c 2.637,3.797 7.023,6.283 12.007,6.283 4.975,0 9.354,-2.477 11.992,-6.261 l 7.284,6.587 C 3.095,-2.784 1.641,-1.284 0,0" /></g><g
           transform="translate(235.1996,168.7775)"
           id="g136"><path
             id="path138"
             style="fill:#5d288a;fill-opacity:1;fill-rule:nonzero;stroke:none"
             d="M 0,0 C 0.304,-2.097 -0.001,0.007 -0.001,0.007 Z" /></g><g
           transform="translate(300.8051,368.0812)"
           id="g140"><path
             id="path142"
             style="fill:#5d288b;fill-opacity:1;fill-rule:nonzero;stroke:none"
             d="m 0,0 c -0.236,-1.295 -1.511,-2.173 -2.832,-1.949 l -3.81,0.671 c -0.293,0.051 -0.558,0.169 -0.813,0.319 -0.724,-2.333 -1.7,-4.632 -2.961,-6.845 0.288,-0.073 0.572,-0.188 0.821,-0.379 l 3.139,-2.241 c 1.085,-0.779 1.321,-2.304 0.538,-3.366 l -2.333,-3.189 c -0.784,-1.073 -2.316,-1.305 -3.396,-0.526 l -3.138,2.251 c -0.262,0.193 -0.478,0.435 -0.641,0.697 -1.735,-1.841 -3.659,-3.461 -5.704,-4.859 0.254,-0.198 0.478,-0.448 0.643,-0.758 l 1.824,-3.383 c 0.62,-1.171 0.163,-2.643 -1.012,-3.263 l -3.499,-1.846 c -1.183,-0.62 -2.656,-0.164 -3.289,0.999 l -1.82,3.4 c -0.164,0.306 -0.254,0.628 -0.267,0.955 -2.363,-0.895 -4.817,-1.528 -7.312,-1.898 0.153,-0.31 0.258,-0.637 0.27,-1.003 l 0.142,-3.849 c 0.048,-1.312 -1.011,-2.431 -2.355,-2.473 l -3.951,-0.152 c -1.339,-0.042 -2.467,1.003 -2.514,2.33 l -0.141,3.842 c -0.013,0.371 0.086,0.72 0.232,1.043 -2.509,0.215 -5.006,0.675 -7.465,1.442 0.014,-0.354 -0.025,-0.715 -0.183,-1.06 l -1.58,-3.508 c -0.547,-1.209 -1.997,-1.759 -3.212,-1.217 l -3.632,1.596 c -1.21,0.543 -1.77,1.972 -1.231,3.181 l 1.587,3.504 c 0.156,0.349 0.402,0.633 0.681,0.861 -2.233,1.317 -4.253,2.85 -6.069,4.541 -0.147,-0.331 -0.349,-0.645 -0.646,-0.895 l -2.974,-2.466 c -1.024,-0.844 -2.566,-0.719 -3.426,0.301 l -2.557,3.012 c -0.856,1.017 -0.715,2.532 0.306,3.393 l 2.97,2.466 c 0.297,0.245 0.641,0.387 0.999,0.468 -1.4,2.119 -2.579,4.357 -3.483,6.699 -0.275,-0.22 -0.581,-0.401 -0.947,-0.492 l -3.77,-0.933 c -1.292,-0.323 -2.618,0.477 -2.945,1.765 l -0.955,3.808 c -0.318,1.283 0.474,2.601 1.777,2.915 l 3.758,0.934 c 0.357,0.091 0.724,0.073 1.072,0 -0.327,2.484 -0.392,4.997 -0.172,7.507 -0.335,-0.079 -0.68,-0.096 -1.037,-0.023 l -3.785,0.802 c -1.315,0.27 -2.151,1.566 -1.876,2.857 l 0.818,3.849 c 0.275,1.296 1.584,2.126 2.888,1.851 l 3.797,-0.797 c 0.327,-0.064 0.624,-0.199 0.886,-0.383 0.728,2.152 1.684,4.265 2.871,6.309 0.091,0.157 0.193,0.289 0.28,0.44 -0.293,0.082 -0.581,0.22 -0.843,0.426 l -3.061,2.359 c -1.054,0.814 -1.234,2.346 -0.413,3.388 l 2.449,3.094 c 0.814,1.046 2.355,1.227 3.401,0.414 l 3.064,-2.364 c 0.245,-0.202 0.448,-0.434 0.603,-0.697 1.777,1.795 3.718,3.366 5.806,4.713 -0.215,0.203 -0.408,0.422 -0.542,0.697 l -1.704,3.452 c -0.577,1.184 -0.074,2.644 1.127,3.224 l 3.56,1.723 c 1.21,0.581 2.669,0.077 3.255,-1.112 l 1.695,-3.451 c 0.134,-0.264 0.193,-0.539 0.216,-0.818 2.366,0.822 4.824,1.382 7.321,1.696 -0.095,0.245 -0.164,0.521 -0.164,0.804 v 3.84 c 0,1.331 1.098,2.411 2.433,2.411 h 3.96 c 1.342,0 2.431,-1.08 2.431,-2.411 v -3.84 c 0,-0.266 -0.068,-0.507 -0.151,-0.748 1.661,-0.194 3.318,-0.534 4.954,-0.978 0.021,0.263 0.043,0.518 0.156,0.771 l 1.445,3.568 c 0.5,1.223 1.933,1.821 3.177,1.321 l 3.68,-1.466 c 1.226,-0.5 1.83,-1.904 1.334,-3.134 l -1.459,-3.569 c -0.098,-0.241 -0.263,-0.443 -0.426,-0.636 0.207,-0.113 0.418,-0.199 0.629,-0.315 2.01,-1.158 3.856,-2.483 5.544,-3.938 0.121,0.215 0.258,0.425 0.447,0.602 l 2.88,2.57 c 0.99,0.882 2.544,0.8 3.426,-0.185 l 2.673,-2.927 C -7.64,34.758 -7.73,33.233 -8.716,32.347 L -11.6,29.772 c -0.212,-0.17 -0.439,-0.288 -0.68,-0.39 1.45,-2.054 2.665,-4.232 3.629,-6.522 0.219,0.147 0.442,0.289 0.71,0.363 l 3.732,1.067 c 1.282,0.361 2.638,-0.393 3.008,-1.662 l 1.098,-3.774 c 0.366,-1.27 -0.396,-2.609 -1.67,-2.976 l -3.733,-1.066 c -0.27,-0.074 -0.537,-0.074 -0.804,-0.06 0.396,-2.445 0.503,-4.934 0.362,-7.439 0.271,0.056 0.547,0.073 0.844,0.026 L -1.282,6.672 C 0.025,6.436 0.917,5.179 0.68,3.87 Z m -30.543,-119.017 c -0.355,-3.653 -1.061,-7.285 -2.046,-10.877 -1.853,-6.756 -4.709,-13.367 -8.187,-19.685 -1.804,-3.275 -3.775,-6.473 -5.854,-9.572 -7.159,-10.672 -15.628,-20.182 -23.164,-27.712 l -0.757,-0.686 -7.285,-6.586 -0.041,-0.038 c -6.958,-6.319 -11.854,-10.011 -11.971,-10.098 l 0.022,-0.016 h -0.043 l 0.021,0.016 c -0.116,0.087 -5.012,3.779 -11.969,10.098 l -0.019,0.018 -7.302,6.6 c -0.052,-0.07 -0.119,-0.127 -0.172,-0.197 0,0 0.068,0.096 0.153,0.216 l -0.023,0.019 -0.72,0.654 c -17.304,17.29 -39.523,45.001 -39.523,73.291 0,16.714 10.208,33.904 26.997,43.947 0.841,-2.136 1.874,-4.215 3.148,-6.184 l 0.007,0.002 0.001,-0.001 6.186,1.489 c 1.691,-2.251 3.719,-4.27 6.052,-5.97 l -1.4,-6.206 0.001,-10e-4 -0.001,-0.004 c 0.32,-0.2 0.654,-0.362 0.978,-0.55 0.589,-0.343 1.176,-0.694 1.781,-1.002 0.142,-0.071 0.29,-0.128 0.433,-0.197 0.814,-0.397 1.636,-0.773 2.472,-1.105 l 0.012,-0.006 0.006,-0.001 c 1.812,-0.717 3.67,-1.287 5.558,-1.694 l 3.326,5.429 c 2.854,-0.405 5.721,-0.371 8.501,0.064 l 3.396,-5.38 c 3.913,0.895 7.701,2.47 11.174,4.717 l -0.002,0.008 h 0.002 l -1.489,6.186 c 2.252,1.691 4.269,3.718 5.971,6.052 l 6.206,-1.399 h 0.004 c 0.197,0.313 0.355,0.641 0.54,0.958 0.347,0.597 0.703,1.19 1.012,1.801 0.07,0.138 0.123,0.281 0.191,0.419 0.401,0.818 0.778,1.644 1.112,2.485 0.002,0.007 0.006,0.013 0.008,0.019 h -0.002 c 0.007,0.014 0.011,0.03 0.015,0.045 16.763,-10.048 26.955,-27.222 26.955,-43.921 0,-1.819 -0.095,-3.634 -0.271,-5.445 m -35.062,-80.287 v 0.007 c 0,0 0.302,-2.102 0,-0.007 m -88.398,169.485 -3.633,1.6 c -1.209,0.538 -1.769,1.968 -1.23,3.181 l 1.588,3.499 c 0.154,0.354 0.4,0.634 0.68,0.862 -2.234,1.321 -4.253,2.854 -6.069,4.545 -0.146,-0.336 -0.349,-0.65 -0.646,-0.895 l -2.974,-2.466 c -1.026,-0.844 -2.566,-0.719 -3.427,0.296 l -2.557,3.013 c -0.856,1.021 -0.714,2.536 0.306,3.397 l 2.971,2.461 c 0.296,0.25 0.64,0.388 0.998,0.47 -1.399,2.118 -2.578,4.36 -3.482,6.697 -0.275,-0.219 -0.581,-0.401 -0.948,-0.49 l -3.77,-0.934 c -1.291,-0.323 -2.616,0.477 -2.944,1.764 l -0.955,3.809 c -0.319,1.287 0.473,2.605 1.777,2.919 l 3.758,0.93 c 0.357,0.095 0.723,0.073 1.072,0 -0.327,2.483 -0.392,5.001 -0.172,7.511 -0.337,-0.079 -0.681,-0.096 -1.038,-0.026 l -3.783,0.805 c -1.317,0.267 -2.152,1.566 -1.877,2.853 l 0.817,3.853 c 0.276,1.291 1.584,2.121 2.889,1.851 l 3.797,-0.801 c 0.327,-0.065 0.624,-0.198 0.886,-0.383 0.728,2.156 1.683,4.269 2.871,6.31 0.09,0.155 0.194,0.292 0.28,0.443 -0.293,0.078 -0.581,0.215 -0.843,0.423 l -3.062,2.362 c -1.054,0.814 -1.235,2.346 -0.413,3.383 l 2.449,3.095 c 0.814,1.05 2.355,1.227 3.401,0.413 l 3.065,-2.363 c 0.245,-0.198 0.448,-0.435 0.603,-0.697 1.777,1.795 3.719,3.37 5.805,4.713 -0.214,0.202 -0.408,0.426 -0.542,0.697 l -1.704,3.452 c -0.577,1.188 -0.073,2.643 1.128,3.224 l 3.56,1.723 c 1.209,0.585 2.668,0.076 3.254,-1.108 l 1.695,-3.456 c 0.134,-0.259 0.194,-0.538 0.215,-0.817 2.368,0.826 4.826,1.386 7.317,1.695 -0.09,0.25 -0.163,0.526 -0.163,0.809 v 3.84 c 0,1.326 1.102,2.411 2.437,2.411 h 3.955 c 1.348,0 2.436,-1.085 2.436,-2.411 v -3.84 c 0,-0.266 -0.073,-0.511 -0.155,-0.748 1.662,-0.194 3.319,-0.537 4.959,-0.982 0.022,0.263 0.043,0.517 0.15,0.771 l 1.451,3.568 c 0.499,1.227 1.933,1.825 3.173,1.325 l 3.68,-1.471 c 1.227,-0.495 1.828,-1.903 1.334,-3.129 l -1.459,-3.569 c -0.099,-0.245 -0.263,-0.443 -0.427,-0.636 0.211,-0.113 0.422,-0.199 0.629,-0.315 2.015,-1.158 3.861,-2.483 5.548,-3.938 0.116,0.211 0.255,0.422 0.448,0.598 l 2.874,2.57 c 0.995,0.886 2.544,0.8 3.427,-0.181 l 2.673,-2.927 c 0.896,-0.981 0.801,-2.51 -0.185,-3.392 l -2.884,-2.575 c -0.206,-0.175 -0.435,-0.288 -0.675,-0.39 1.45,-2.054 2.664,-4.236 3.628,-6.527 0.216,0.152 0.439,0.29 0.706,0.363 l 3.736,1.067 c 1.279,0.366 2.634,-0.388 3.004,-1.657 l 1.103,-3.774 c 0.361,-1.27 -0.402,-2.614 -1.675,-2.98 l -3.728,-1.062 c -0.27,-0.074 -0.538,-0.074 -0.804,-0.065 0.396,-2.445 0.499,-4.933 0.357,-7.437 0.274,0.055 0.551,0.076 0.844,0.025 l 3.822,-0.667 c 1.308,-0.237 2.199,-1.494 1.967,-2.798 l -0.68,-3.874 c -0.241,-1.296 -1.515,-2.169 -2.833,-1.945 l -3.813,0.671 c -0.293,0.048 -0.56,0.169 -0.809,0.315 -0.724,-2.334 -1.705,-4.632 -2.962,-6.845 0.288,-0.069 0.569,-0.189 0.822,-0.375 l 3.134,-2.246 c 1.085,-0.779 1.325,-2.299 0.542,-3.366 l -2.337,-3.184 c -0.779,-1.073 -2.315,-1.31 -3.391,-0.53 l -3.138,2.255 c -0.268,0.193 -0.478,0.431 -0.642,0.692 -1.739,-1.836 -3.659,-3.456 -5.703,-4.854 0.254,-0.198 0.473,-0.448 0.637,-0.758 l 1.825,-3.388 c 0.619,-1.166 0.163,-2.642 -1.011,-3.258 l -3.5,-1.846 c -1.179,-0.62 -2.651,-0.164 -3.284,0.999 l -1.825,3.4 c -0.164,0.301 -0.249,0.628 -0.266,0.955 -2.364,-0.895 -4.813,-1.528 -7.314,-1.902 0.159,-0.31 0.263,-0.637 0.272,-1.003 l 0.141,-3.845 c 0.052,-1.312 -1.012,-2.435 -2.349,-2.478 l -3.953,-0.151 c -1.341,-0.042 -2.465,1.007 -2.517,2.334 l -0.142,3.842 c -0.009,0.367 0.09,0.72 0.237,1.038 -2.509,0.215 -5.006,0.68 -7.464,1.443 0.012,-0.35 -0.026,-0.715 -0.185,-1.059 l -1.58,-3.509 c -0.547,-1.21 -1.997,-1.755 -3.211,-1.217 m 71.904,-14.313 c -3.948,-4.225 -7.766,-7.067 -7.766,-7.067 0,0 -3.795,2.833 -7.726,7.046 -4.227,4.53 -8.613,10.658 -8.613,16.645 l 2.364,2.859 13.992,16.928 14.01,-16.944 2.351,-2.843 c 0,-5.977 -4.381,-12.096 -8.612,-16.624 m 4.622,-20.808 c -1.642,-2.483 -4.086,-4.52 -6.859,-5.634 -0.003,0.015 -0.006,0.034 -0.01,0.05 -3.691,-1.446 -7.351,-1.447 -10.979,-0.001 -0.003,-0.015 -0.005,-0.031 -0.008,-0.045 -3.693,1.484 -6.811,4.612 -8.295,8.302 0.017,0.004 0.035,0.007 0.052,0.01 -0.009,0.022 -0.014,0.042 -0.022,0.063 4.361,0.925 8.948,1.44 13.75,1.44 4.812,0 9.41,-0.516 13.778,-1.446 l 0.016,-0.002 c -0.009,-0.024 -0.015,-0.046 -0.024,-0.068 0.015,-0.003 0.03,-0.005 0.045,-0.009 -0.368,-0.917 -0.899,-1.841 -1.444,-2.66 0.22,0.331 -0.191,-0.29 0,0 M -89.873,84.748 c 14.665,0 28.714,-4.262 40.705,-12.168 -1.016,-0.569 -2.101,-1.09 -3.082,-1.68 -17.647,-10.584 -31.688,-25.774 -37.658,-43.998 -5.974,18.224 -20.01,33.414 -37.658,43.998 -0.947,0.569 -1.989,1.068 -2.961,1.61 12.013,7.903 26.101,12.238 40.654,12.238 M 3.31,-17.54 c 4.619,7.748 7.326,16.766 7.326,26.421 0,0.129 -0.017,0.253 -0.017,0.382 0.056,51.333 10.86,79.866 10.86,79.866 h -2.514 c -21.935,0 -43.861,-4.816 -61.805,-13.317 -13.606,9.831 -29.907,15.151 -46.973,15.151 -16.946,0 -33.345,-5.363 -46.964,-15.182 -17.961,8.523 -39.922,13.348 -61.878,13.348 h -2.518 c 0,0 10.808,-28.533 10.863,-79.866 0,-0.129 -0.013,-0.253 -0.013,-0.382 0,-9.655 2.699,-18.673 7.318,-26.421 -45.665,-57.979 -1.583,-136.696 68.795,-183.425 3.519,-2.337 7.104,-4.592 10.746,-6.763 4.458,-2.656 8.999,-5.19 13.616,-7.574 h 0.005 c 4.649,2.4 9.196,4.986 13.683,7.661 3.605,2.15 7.16,4.37 10.644,6.684 14.608,9.698 28.102,20.752 39.877,32.737 2.618,2.661 5.157,5.366 7.599,8.113 l -0.121,0.471 c 0.861,0.664 1.675,1.396 2.437,2.184 0.054,0.062 0.11,0.125 0.163,0.187 0.717,0.756 1.396,1.556 2.01,2.416 l 0.022,-0.004 c 2.377,2.857 4.653,5.751 6.828,8.678 30.906,41.614 40.613,89.782 10.011,128.635" /></g></g></g><g
       id="g144"><g
         clip-path="url(#clipPath150)"
         id="g146"><g
           transform="translate(130.6723,103.1915)"
           id="g152"><path
             id="path154"
             style="fill:#5c268a;fill-opacity:1;fill-rule:evenodd;stroke:none"
             d="m 0,0 c -17.832,0 -28.795,-13.528 -28.795,-29.742 0,-14.027 8.032,-29.556 28.795,-29.556 18.842,0 24.198,12.08 26.382,18.847 h -9.829 c -2.26,0 -3.908,-0.901 -5.446,-2.795 -0.641,-0.734 -3.942,-4.502 -10.559,-4.502 -13.406,0 -13.597,10.644 -13.852,14.28 H 27.362 C 28.51,-17.147 19.874,0 0,0 m -13.304,-23.669 c 0,1.13 0.896,12.001 12.879,12.001 7.93,0 10.806,-4.494 12.31,-12.001 z" /></g><g
           transform="translate(93.1484,45.5802)"
           id="g156"><path
             id="path158"
             style="fill:#5c268a;fill-opacity:1;fill-rule:evenodd;stroke:none"
             d="m 0,0 h -2.695 c -5.233,0 -8.215,1.602 -9.613,8.627 -3.656,-4.583 -10.406,-10.314 -20.915,-10.314 -22.068,0 -37.257,16.027 -37.257,39.339 0,23.863 15.044,40.08 37.257,40.08 17.356,0 30.668,-11.039 32.074,-26.79 h -15.954 c 0,0 -1.741,12.774 -16.12,12.774 -14.203,0 -20.565,-11.525 -20.565,-26.064 0,-11.84 5.088,-25.406 20.565,-25.406 17.029,0 17.794,13.559 18.138,16.374 h -16.8 V 41.05 H -15.17 C -2.907,41.05 0,37.614 0,29.267 Z" /></g><g
           transform="translate(225.1518,73.4406)"
           id="g160"><path
             id="path162"
             style="fill:#5c268a;fill-opacity:1;fill-rule:evenodd;stroke:none"
             d="m 0,0 c 0,-18.732 -12.255,-29.551 -29.203,-29.551 -16.956,0 -29.112,10.819 -29.112,29.551 0,18.725 11.977,29.751 29.112,29.751 C -12.072,29.751 0,18.725 0,0 m -29.203,18.087 c -10.402,0 -13.643,-8.836 -13.643,-18.087 0,-9.71 3.432,-17.993 13.643,-17.993 10.208,0 13.733,8.283 13.733,17.993 0,9.251 -3.339,18.087 -13.733,18.087" /></g><g
           transform="translate(289.1118,84.4044)"
           id="g164"><path
             id="path166"
             style="fill:#5c268a;fill-opacity:1;fill-rule:evenodd;stroke:none"
             d="m 0,0 h -9.591 c 0.871,14.484 13.835,18.838 26.454,18.838 11.223,0 24.726,-2.506 24.726,-16.009 v -29.293 c 0,-5.118 0.548,-10.236 1.962,-12.521 h -6.906 c -5.127,0 -8.559,1.873 -9.702,6.774 -4.447,-6.159 -12.246,-8.3 -19.115,-8.3 -10.669,0 -19.165,5.335 -19.165,16.876 0,12.747 9.587,15.793 19.165,17.097 9.477,1.419 18.304,1.096 18.304,7.409 C 26.132,7.519 21.553,8.5 16.111,8.5 11.805,8.5 8.529,7.187 6.996,4.15 5.76,1.665 3.296,0 0,0 m 26.132,-10.369 c -2.612,-2.29 -8.067,-2.401 -12.854,-3.271 -4.796,-0.968 -9.149,-3.674 -9.149,-9.344 0,-5.765 4.469,-7.184 9.476,-7.184 12.081,0 12.527,9.587 12.527,12.96 z" /></g><g
           transform="translate(368.5766,103.1915)"
           id="g168"><path
             id="path170"
             style="fill:#5c268a;fill-opacity:1;fill-rule:evenodd;stroke:none"
             d="m 0,0 c -5.102,0 -9.723,-0.998 -13.729,-2.862 l -0.003,10.444 c -0.094,10.525 -2.133,12.51 -15.377,12.51 V -30.15 h 0.012 c 0.175,-18.478 12.263,-29.148 29.097,-29.148 16.952,0 29.202,10.811 29.202,29.542 C 29.202,-11.026 17.13,0 0,0 m 0,-47.748 c -10.207,0 -13.64,8.291 -13.64,17.992 0,9.252 3.238,18.092 13.64,18.092 10.394,0 13.732,-8.84 13.732,-18.092 0,-9.701 -3.525,-17.992 -13.732,-17.992" /></g><g
           transform="translate(258.3344,59.2657)"
           id="g172"><path
             id="path174"
             style="fill:#5c268a;fill-opacity:1;fill-rule:evenodd;stroke:none"
             d="m 0,0 -9.099,0.009 -0.008,51.558 c -0.098,10.522 -2.132,12.51 -15.376,12.51 V -0.977 c 0.13,-10.657 2.089,-14.374 15.282,-14.395 h 21.71 C 12.509,-2.128 10.525,-0.098 0,0" /></g></g></g></g></svg>